# Blender v2.79 (sub 0) OBJ File: ''
# www.blender.org
v -0.083506 0.005589 0.002826
v -0.192520 0.193229 0.125476
v -0.159413 0.219830 0.125476
v 0.008271 0.084305 0.002826
v 0.078446 0.009771 0.002826
v 0.172383 0.225784 0.125476
v 0.201475 0.179368 0.125476
v 0.000925 -0.068729 0.002826
v 0.197995 -0.139125 0.125476
v 0.134266 -0.179989 0.125476
v -0.162152 -0.166163 0.125476
v -0.187038 -0.131378 0.125476
v -0.083506 0.005589 0.026090
v 0.008271 0.084305 0.026090
v 0.078446 0.009771 0.026090
v 0.000925 -0.068729 0.026090
vn -0.7427 -0.0073 -0.6696
vn -0.8630 0.3029 0.4042
vn -0.1638 0.8941 0.4168
vn 0.0316 0.7206 -0.6927
vn 0.7424 -0.0455 -0.6684
vn 0.2119 0.9108 0.3544
vn 0.8740 0.1826 0.4503
vn -0.0233 -0.7653 -0.6432
vn 0.8895 -0.2089 0.4063
vn 0.1335 -0.8586 0.4950
vn 0.0000 -0.0000 -1.0000
vn -0.2280 -0.8702 0.4367
vn -0.8402 -0.1920 0.5072
vn -0.6917 0.0903 0.7165
vn -0.0495 0.6374 0.7690
vn 0.6688 0.0755 0.7396
vn -0.0889 -0.6930 0.7154
vn 0.0000 0.0000 1.0000
s 1
f 1//1 2//2 3//3 4//4
f 5//5 4//4 6//6 7//7
f 8//8 5//5 9//9 10//10
f 4//11 5//11 8//11 1//11
f 8//8 11//12 12//13 1//1
f 13//14 14//15 3//3 2//2
f 15//16 7//7 6//6 14//15
f 16//17 10//10 9//9 15//16
f 14//18 13//18 16//18 15//18
f 16//17 13//14 12//13 11//12
f 13//14 2//2 1//1
f 13//14 1//1 12//13
f 16//17 11//12 8//8
f 16//17 8//8 10//10
f 15//16 9//9 5//5
f 15//16 5//5 7//7
f 14//15 6//6 4//4
f 14//15 4//4 3//3
